{"title":"Hes Way More Famous Than You 2013 HDRip XviD Mp3-KingStoner","uid":8740415,"size":854090979,"categoryP":"video","categoryS":"movies","magnet":"?xt=urn:btih:baee342f203620fc2281ce70b825b20eca677f18&amp;dn=Hes+Way+More+Famous+Than+You+2013+HDRip+XviD+Mp3-KingStoner&amp;tr=udp%3A%2F%2Ftracker.openbittorrent.com%3A80&amp;tr=udp%3A%2F%2Fopen.demonii.com%3A1337&amp;tr=udp%3A%2F%2Ftracker.coppersurfer.tk%3A6969&amp;tr=udp%3A%2F%2Fexodus.desync.com%3A6969","seeders":1,"leechers":0,"uploader":"ValidusVyto","files":-1,"time":1374769349,"description":"_______ Visit us at our Semi Public Bittorrent Community ________\n    &lt;a href=&quot;\nhttp://p2pdl.com&quot; rel=&quot;nofollow&quot; target=&quot;_NEW&quot;&gt;\nhttp://p2pdl.com&lt;/a&gt;  _____________________________ &lt;a href=&quot; http://p2pdl.com&quot; rel=&quot;nofollow&quot; target=&quot;_NEW&quot;&gt; http://p2pdl.com&lt;/a&gt;\n\n\nHes Way More Famous Than You 2013 HDRip XviD Mp3-KingStoner \n\nWhen an aspiring actress loses her support system in one fell swoop, she sets out with a stolen script, her brother, and his boyfriend to make a movie.\n &lt;a href=&quot;\nhttp://www.imdb.com/title/tt2076216/&quot; rel=&quot;nofollow&quot; target=&quot;_NEW&quot;&gt;\nhttp://www.imdb.com/title/tt2076216/&lt;/a&gt;\n\nGeneral\nFormat                                   : AVI\nFormat/Info                              : Audio Video Interleave\nFile size                                : 815 MiB\nDuration                                 : 1h 36mn\nOverall bit rate                         : 1 186 Kbps\nWriting application                      : MEncoder SVN-r33883(20110719-gcc4.5.2)\nWriting library                          : MPlayer\n\nVideo\nFormat settings, Matrix                  : Default (H.263)\nCodec ID                                 : XVID\nCodec ID/Hint                            : XviD\nDuration                                 : 1h 36mn\nBit rate                                 : 1 046 Kbps\nWidth                                    : 640 pixels\nHeight                                   : 272 pixels\nDisplay aspect ratio                     : 16:9\nOriginal display aspect ratio            : 2.35:1\nFrame rate                               : 23.976 fps\nBit depth                                : 8 bits\nScan type                                : Progressive\nCompression mode                         : Lossy\nBits/(Pixel*Frame)                       : 0.251\nStream size                              : 718 MiB (88%)\nWriting library                          : XviD 1.2.1 (UTC 2008-12-04)\n\nAudio\nFormat                                   : MPEG Audio\nCodec ID/Hint                            : MP3\nDuration                                 : 1h 36mn\nBit rate mode                            : Constant\nBit rate                                 : 128 Kbps\nChannel(s)                               : 2 channels\nSampling rate                            : 44.1 KHz\nDelay relative to video                  : 42ms\nStream size                              : 87.9 MiB (11%)\nInterleave, preload duration             : 522 ms\nWriting library                          : LAME3.98.4\n &lt;a href=&quot;\nhttp://ultraimg.com/images/SDowl.png&quot; rel=&quot;nofollow&quot; target=&quot;_NEW&quot;&gt;\nhttp://ultraimg.com/images/SDowl.png&lt;/a&gt; &lt;a href=&quot;\nhttp://ultraimg.com/images/1bJsc.png&quot; rel=&quot;nofollow&quot; target=&quot;_NEW&quot;&gt;\nhttp://ultraimg.com/images/1bJsc.png&lt;/a&gt; &lt;a href=&quot;\nhttp://ultraimg.com/images/bYVSr.png&quot; rel=&quot;nofollow&quot; target=&quot;_NEW&quot;&gt;\nhttp://ultraimg.com/images/bYVSr.png&lt;/a&gt; &lt;a href=&quot;\nhttp://ultraimg.com/images/YBla3.png&quot; rel=&quot;nofollow&quot; target=&quot;_NEW&quot;&gt;\nhttp://ultraimg.com/images/YBla3.png&lt;/a&gt; &lt;a href=&quot;\nhttp://ultraimg.com/images/Ut74O.png&quot; rel=&quot;nofollow&quot; target=&quot;_NEW&quot;&gt;\nhttp://ultraimg.com/images/Ut74O.png&lt;/a&gt; &lt;a href=&quot;\nhttp://ultraimg.com/images/0umUD.png&quot; rel=&quot;nofollow&quot; target=&quot;_NEW&quot;&gt;\nhttp://ultraimg.com/images/0umUD.png&lt;/a&gt;","torrent":{"xt":"urn:btih:baee342f203620fc2281ce70b825b20eca677f18","amp;dn":"Hes+Way+More+Famous+Than+You+2013+HDRip+XviD+Mp3-KingStoner","amp;tr":["udp%3A%2F%2Ftracker.openbittorrent.com%3A80","udp%3A%2F%2Fopen.demonii.com%3A1337","udp%3A%2F%2Ftracker.coppersurfer.tk%3A6969","udp%3A%2F%2Fexodus.desync.com%3A6969"],"infoHash":"baee342f203620fc2281ce70b825b20eca677f18","infoHashBuffer":{"type":"Buffer","data":[186,238,52,47,32,54,32,252,34,129,206,112,184,37,178,14,202,103,127,24]},"announce":[],"urlList":[]}}